<?xml version="1.0" encoding="UTF-8"?>
<svg version="1.1" xmlns="http://www.w3.org/2000/svg" width="32" height="32">
<path d="M0 0 C2.73083902 -0.13548815 5.45491807 -0.23429855 8.1875 -0.3125 C8.95642578 -0.35439453 9.72535156 -0.39628906 10.51757812 -0.43945312 C14.8423658 -0.53225973 16.48617326 -0.39728871 20.03125 2.34375 C22.18795501 5.25359009 22.50392521 6.47252351 22 10 C23.98 10 25.96 10 28 10 C28 14.62 28 19.24 28 24 C26.02 24 24.04 24 22 24 C22 25.98 22 27.96 22 30 C14.74 30 7.48 30 0 30 C-0.33 28.35 -0.66 26.7 -1 25 C-1.99 24.67 -2.98 24.34 -4 24 C-4 19.38 -4 14.76 -4 10 C-2.68 10 -1.36 10 0 10 C0 6.7 0 3.4 0 0 Z M4 4 C4 5.98 4 7.96 4 10 C8.62 10 13.24 10 18 10 C18 9.34 18 8.68 18 8 C16.68 8 15.36 8 14 8 C14 6.68 14 5.36 14 4 C10.7 4 7.4 4 4 4 Z M4 24 C4 24.66 4 25.32 4 26 C8.29 26 12.58 26 17 26 C17.33 25.34 17.66 24.68 18 24 C13.38 24 8.76 24 4 24 Z " fill="#3484D2" transform="translate(4,0)"/>
<path d="M0 0 C2.73083902 -0.13548815 5.45491807 -0.23429855 8.1875 -0.3125 C8.95642578 -0.35439453 9.72535156 -0.39628906 10.51757812 -0.43945312 C14.8423658 -0.53225973 16.48617326 -0.39728871 20.03125 2.34375 C22.18795501 5.25359009 22.50392521 6.47252351 22 10 C20.68 10 19.36 10 18 10 C18 9.34 18 8.68 18 8 C16.68 8 15.36 8 14 8 C14 6.68 14 5.36 14 4 C10.7 4 7.4 4 4 4 C4 5.98 4 7.96 4 10 C2.68 10 1.36 10 0 10 C0 6.7 0 3.4 0 0 Z " fill="#9C9C9C" transform="translate(4,0)"/>
<path d="M0 0 C1.32 0 2.64 0 4 0 C4 0.66 4 1.32 4 2 C6.06277107 1.85805236 8.12521031 1.71127784 10.1875 1.5625 C11.33605469 1.48128906 12.48460937 1.40007813 13.66796875 1.31640625 C16.51598171 1.04596188 19.21210482 0.62478253 22 0 C22 1.98 22 3.96 22 6 C14.74 6 7.48 6 0 6 C-0.33 4.35 -0.66 2.7 -1 1 C-0.67 0.67 -0.34 0.34 0 0 Z " fill="#9C9C9C" transform="translate(4,24)"/>
<path d="M0 0 C1.98 0 3.96 0 6 0 C6 3.3 6 6.6 6 10 C4.02 10 2.04 10 0 10 C0 6.7 0 3.4 0 0 Z " fill="#D6E6F6" transform="translate(16,12)"/>
<path d="M0 0 C1.98 0 3.96 0 6 0 C6 3.3 6 6.6 6 10 C5.34 10 4.68 10 4 10 C4 7.36 4 4.72 4 2 C3.34 2 2.68 2 2 2 C2 4.64 2 7.28 2 10 C1.34 10 0.68 10 0 10 C0 6.7 0 3.4 0 0 Z " fill="#FFFFFF" transform="translate(24,12)"/>
<path d="M0 0 C1.98 0 3.96 0 6 0 C6 3.3 6 6.6 6 10 C5.34 10 4.68 10 4 10 C4 7.36 4 4.72 4 2 C3.34 2 2.68 2 2 2 C2 4.64 2 7.28 2 10 C1.34 10 0.68 10 0 10 C0 6.7 0 3.4 0 0 Z " fill="#FFFFFF" transform="translate(2,12)"/>
<path d="M0 0 C1.32 0 2.64 0 4 0 C4 0.66 4 1.32 4 2 C3.34 2 2.68 2 2 2 C2 2.66 2 3.32 2 4 C2.66 4 3.32 4 4 4 C4 4.66 4 5.32 4 6 C3.34 6 2.68 6 2 6 C2 6.66 2 7.32 2 8 C2.66 8 3.32 8 4 8 C4 8.66 4 9.32 4 10 C2.68 10 1.36 10 0 10 C0 6.7 0 3.4 0 0 Z " fill="#FFFFFF" transform="translate(10,12)"/>
</svg>
